<svg xmlns="http://www.w3.org/2000/svg" viewBox="0 0 680 300" width="1360" height="600" role="img" aria-label="Mascote ARGOS — três poses: vigia, analisando, aprovado">
  <defs>
    <symbol id="owlbody" viewBox="0 0 280 340">
      <ellipse cx="140" cy="320" rx="78" ry="12" fill="#CBD5DE"/>
      <polygon points="100,92 60,42 126,90" fill="#245F7C"/>
      <polygon points="180,92 220,42 154,90" fill="#245F7C"/>
      <ellipse cx="140" cy="190" rx="100" ry="116" fill="#2C6E8E"/>
      <ellipse cx="62" cy="198" rx="26" ry="66" fill="#245F7C"/>
      <ellipse cx="218" cy="198" rx="26" ry="66" fill="#245F7C"/>
      <ellipse cx="140" cy="214" rx="62" ry="86" fill="#DCE6EC"/>
      <polygon points="140,180 128,162 152,162" fill="#2B3F5C"/>
      <g stroke="#9DB6C4" stroke-width="2" opacity="0.7">
        <line x1="122" y1="236" x2="134" y2="226"/><line x1="134" y1="226" x2="146" y2="226"/>
        <line x1="146" y1="226" x2="158" y2="236"/><line x1="122" y1="236" x2="134" y2="246"/>
        <line x1="134" y1="246" x2="146" y2="246"/><line x1="146" y1="246" x2="158" y2="236"/>
      </g>
      <g fill="#6E92A6"><circle cx="122" cy="236" r="2.8"/><circle cx="158" cy="236" r="2.8"/><circle cx="134" cy="226" r="2.8"/><circle cx="146" cy="226" r="2.8"/><circle cx="134" cy="246" r="2.8"/><circle cx="146" cy="246" r="2.8"/></g>
      <circle cx="140" cy="236" r="4.6" fill="#2C6E8E"/><circle cx="140" cy="236" r="2" fill="#1FA59E"/>
      <path d="M100,290 Q116,304 132,292" fill="none" stroke="#2B3F5C" stroke-width="5" stroke-linecap="round"/>
      <path d="M148,292 Q164,304 180,290" fill="none" stroke="#2B3F5C" stroke-width="5" stroke-linecap="round"/>
    </symbol>
  </defs>

  <g transform="translate(38,16) scale(0.6)">
    <use href="#owlbody" width="280" height="340"/>
    <circle cx="106" cy="150" r="37" fill="#F6F8FA" stroke="#2B3F5C" stroke-width="5"/>
    <circle cx="174" cy="150" r="37" fill="#F6F8FA" stroke="#2B3F5C" stroke-width="5"/>
    <circle cx="106" cy="152" r="15" fill="#2B3F5C"/><circle cx="174" cy="152" r="15" fill="#2B3F5C"/>
    <circle cx="106" cy="152" r="6.5" fill="#1FA59E"/><circle cx="174" cy="152" r="6.5" fill="#1FA59E"/>
    <circle cx="101" cy="146" r="3" fill="#F6F8FA"/><circle cx="169" cy="146" r="3" fill="#F6F8FA"/>
    <path d="M80,116 L122,128" stroke="#2B3F5C" stroke-width="6" stroke-linecap="round"/>
    <path d="M200,116 L158,128" stroke="#2B3F5C" stroke-width="6" stroke-linecap="round"/>
  </g>
  <text x="140" y="288" text-anchor="middle" font-family="sans-serif" font-size="14" font-weight="500" fill="#2B3340">Vigia</text>

  <g transform="translate(269,16) scale(0.6)">
    <use href="#owlbody" width="280" height="340"/>
    <circle cx="106" cy="150" r="37" fill="#F6F8FA" stroke="#2B3F5C" stroke-width="5"/>
    <circle cx="174" cy="150" r="37" fill="#F6F8FA" stroke="#2B3F5C" stroke-width="5"/>
    <circle cx="113" cy="153" r="15" fill="#2B3F5C"/><circle cx="181" cy="153" r="15" fill="#2B3F5C"/>
    <circle cx="113" cy="153" r="6.5" fill="#1FA59E"/><circle cx="181" cy="153" r="6.5" fill="#1FA59E"/>
    <circle cx="108" cy="147" r="3" fill="#F6F8FA"/><circle cx="176" cy="147" r="3" fill="#F6F8FA"/>
    <path d="M80,110 L122,122" stroke="#2B3F5C" stroke-width="6" stroke-linecap="round"/>
    <path d="M200,118 L158,128" stroke="#2B3F5C" stroke-width="6" stroke-linecap="round"/>
    <circle cx="214" cy="206" r="22" fill="#1FA59E" fill-opacity="0.16" stroke="#2B3F5C" stroke-width="6"/>
    <line x1="230" y1="222" x2="248" y2="240" stroke="#2B3F5C" stroke-width="8" stroke-linecap="round"/>
  </g>
  <text x="371" y="288" text-anchor="middle" font-family="sans-serif" font-size="14" font-weight="500" fill="#2B3340">Analisando</text>

  <g transform="translate(500,16) scale(0.6)">
    <use href="#owlbody" width="280" height="340"/>
    <path d="M84,156 Q106,132 128,156" fill="none" stroke="#2B3F5C" stroke-width="7" stroke-linecap="round"/>
    <path d="M152,156 Q174,132 196,156" fill="none" stroke="#2B3F5C" stroke-width="7" stroke-linecap="round"/>
    <circle cx="206" cy="120" r="22" fill="#1FA59E"/>
    <path d="M196,120 L203,128 L217,112" fill="none" stroke="#FFFFFF" stroke-width="6" stroke-linecap="round" stroke-linejoin="round"/>
  </g>
  <text x="602" y="288" text-anchor="middle" font-family="sans-serif" font-size="14" font-weight="500" fill="#2B3340">Aprovado</text>
</svg>
