<svg xmlns="http://www.w3.org/2000/svg" viewBox="0 0 280 340" width="560" height="680" role="img" aria-label="Mascote ARGOS — versão fundo escuro">
  <rect width="280" height="340" rx="0" fill="#1A2230"/>
  <ellipse cx="140" cy="320" rx="78" ry="12" fill="#11161F"/>

  <polygon points="100,92 60,42 126,90" fill="#3C7E9C"/>
  <polygon points="180,92 220,42 154,90" fill="#3C7E9C"/>

  <ellipse cx="140" cy="190" rx="100" ry="116" fill="#4A90AE"/>
  <ellipse cx="62" cy="198" rx="26" ry="66" fill="#3C7E9C"/>
  <ellipse cx="218" cy="198" rx="26" ry="66" fill="#3C7E9C"/>

  <ellipse cx="140" cy="214" rx="62" ry="86" fill="#D7E4EC"/>

  <circle cx="106" cy="150" r="37" fill="#F6F8FA" stroke="#1A2230" stroke-width="5"/>
  <circle cx="174" cy="150" r="37" fill="#F6F8FA" stroke="#1A2230" stroke-width="5"/>
  <circle cx="106" cy="152" r="15" fill="#1A2230"/>
  <circle cx="174" cy="152" r="15" fill="#1A2230"/>
  <circle cx="106" cy="152" r="6.5" fill="#2FD0C6"/>
  <circle cx="174" cy="152" r="6.5" fill="#2FD0C6"/>
  <circle cx="101" cy="146" r="3" fill="#F6F8FA"/>
  <circle cx="169" cy="146" r="3" fill="#F6F8FA"/>

  <path d="M80,116 L122,128" stroke="#1A2230" stroke-width="6" stroke-linecap="round"/>
  <path d="M200,116 L158,128" stroke="#1A2230" stroke-width="6" stroke-linecap="round"/>

  <polygon points="140,180 128,162 152,162" fill="#1A2230"/>

  <g stroke="#9FC3D6" stroke-width="2" opacity="0.8">
    <line x1="122" y1="236" x2="134" y2="226"/><line x1="134" y1="226" x2="146" y2="226"/>
    <line x1="146" y1="226" x2="158" y2="236"/><line x1="122" y1="236" x2="134" y2="246"/>
    <line x1="134" y1="246" x2="146" y2="246"/><line x1="146" y1="246" x2="158" y2="236"/>
  </g>
  <g fill="#7FA8BF"><circle cx="122" cy="236" r="2.8"/><circle cx="158" cy="236" r="2.8"/><circle cx="134" cy="226" r="2.8"/><circle cx="146" cy="226" r="2.8"/><circle cx="134" cy="246" r="2.8"/><circle cx="146" cy="246" r="2.8"/></g>
  <circle cx="140" cy="236" r="4.6" fill="#9FC3D6"/>
  <circle cx="140" cy="236" r="2" fill="#2FD0C6"/>

  <path d="M100,290 Q116,304 132,292" fill="none" stroke="#1A2230" stroke-width="5" stroke-linecap="round"/>
  <path d="M148,292 Q164,304 180,290" fill="none" stroke="#1A2230" stroke-width="5" stroke-linecap="round"/>
</svg>
