<svg xmlns="http://www.w3.org/2000/svg" viewBox="0 0 280 340" width="560" height="680" role="img" aria-label="Mascote ARGOS — coruja vigia">
  <ellipse cx="140" cy="320" rx="78" ry="12" fill="#CBD5DE"/>

  <polygon points="100,92 60,42 126,90" fill="#245F7C"/>
  <polygon points="180,92 220,42 154,90" fill="#245F7C"/>

  <ellipse cx="140" cy="190" rx="100" ry="116" fill="#2C6E8E"/>

  <ellipse cx="62" cy="198" rx="26" ry="66" fill="#245F7C"/>
  <ellipse cx="218" cy="198" rx="26" ry="66" fill="#245F7C"/>
  <path d="M48,176 q14,8 0,16" fill="none" stroke="#1C4D64" stroke-width="3" stroke-linecap="round"/>
  <path d="M48,200 q14,8 0,16" fill="none" stroke="#1C4D64" stroke-width="3" stroke-linecap="round"/>
  <path d="M232,176 q-14,8 0,16" fill="none" stroke="#1C4D64" stroke-width="3" stroke-linecap="round"/>
  <path d="M232,200 q-14,8 0,16" fill="none" stroke="#1C4D64" stroke-width="3" stroke-linecap="round"/>

  <ellipse cx="140" cy="214" rx="62" ry="86" fill="#DCE6EC"/>

  <circle cx="106" cy="150" r="37" fill="#F6F8FA" stroke="#2B3F5C" stroke-width="5"/>
  <circle cx="174" cy="150" r="37" fill="#F6F8FA" stroke="#2B3F5C" stroke-width="5"/>
  <circle cx="106" cy="152" r="15" fill="#2B3F5C"/>
  <circle cx="174" cy="152" r="15" fill="#2B3F5C"/>
  <circle cx="106" cy="152" r="6.5" fill="#1FA59E"/>
  <circle cx="174" cy="152" r="6.5" fill="#1FA59E"/>
  <circle cx="101" cy="146" r="3" fill="#F6F8FA"/>
  <circle cx="169" cy="146" r="3" fill="#F6F8FA"/>

  <path d="M80,116 L122,128" stroke="#2B3F5C" stroke-width="6" stroke-linecap="round"/>
  <path d="M200,116 L158,128" stroke="#2B3F5C" stroke-width="6" stroke-linecap="round"/>

  <polygon points="140,180 128,162 152,162" fill="#2B3F5C"/>

  <g stroke="#9DB6C4" stroke-width="2" opacity="0.75">
    <line x1="122" y1="236" x2="134" y2="226"/><line x1="134" y1="226" x2="146" y2="226"/>
    <line x1="146" y1="226" x2="158" y2="236"/><line x1="122" y1="236" x2="134" y2="246"/>
    <line x1="134" y1="246" x2="146" y2="246"/><line x1="146" y1="246" x2="158" y2="236"/>
    <line x1="134" y1="226" x2="140" y2="236"/><line x1="146" y1="226" x2="140" y2="236"/>
  </g>
  <g fill="#6E92A6"><circle cx="122" cy="236" r="2.8"/><circle cx="158" cy="236" r="2.8"/><circle cx="134" cy="226" r="2.8"/><circle cx="146" cy="226" r="2.8"/><circle cx="134" cy="246" r="2.8"/><circle cx="146" cy="246" r="2.8"/></g>
  <circle cx="140" cy="236" r="4.6" fill="#2C6E8E"/>
  <circle cx="140" cy="236" r="2" fill="#1FA59E"/>

  <path d="M100,290 Q116,304 132,292" fill="none" stroke="#2B3F5C" stroke-width="5" stroke-linecap="round"/>
  <path d="M148,292 Q164,304 180,290" fill="none" stroke="#2B3F5C" stroke-width="5" stroke-linecap="round"/>
</svg>
