<svg xmlns="http://www.w3.org/2000/svg" viewBox="0 0 100 100" width="512" height="512" role="img" aria-label="ARGOS">
  <g stroke="#2C6E8E" stroke-width="2" opacity="0.55">
    <line x1="14" y1="50" x2="34" y2="34"/><line x1="34" y1="34" x2="66" y2="34"/><line x1="66" y1="34" x2="86" y2="50"/>
    <line x1="14" y1="50" x2="34" y2="66"/><line x1="34" y1="66" x2="66" y2="66"/><line x1="66" y1="66" x2="86" y2="50"/>
    <line x1="34" y1="34" x2="50" y2="50"/><line x1="66" y1="34" x2="50" y2="50"/>
    <line x1="34" y1="66" x2="50" y2="50"/><line x1="66" y1="66" x2="50" y2="50"/>
  </g>
  <g fill="#2B3F5C">
    <circle cx="14" cy="50" r="4.2"/><circle cx="86" cy="50" r="4.2"/>
    <circle cx="34" cy="34" r="4.2"/><circle cx="66" cy="34" r="4.2"/>
    <circle cx="34" cy="66" r="4.2"/><circle cx="66" cy="66" r="4.2"/>
  </g>
  <circle cx="50" cy="50" r="8.5" fill="#2C6E8E"/>
  <circle cx="50" cy="50" r="3.6" fill="#1FA59E"/>
</svg>
